<mxfile host="65bd71144e">
    <diagram id="6uQNC2bWdwM0d5Mb5Ahn" name="Page-1">
        <mxGraphModel dx="1448" dy="642" grid="1" gridSize="10" guides="1" tooltips="1" connect="1" arrows="1" fold="1" page="1" pageScale="1" pageWidth="827" pageHeight="1169" math="0" shadow="0">
            <root>
                <mxCell id="0"/>
                <mxCell id="1" parent="0"/>
                <mxCell id="41" value="bookId" style="ellipse;whiteSpace=wrap;html=1;align=center;fontStyle=4;" parent="1" vertex="1">
                    <mxGeometry x="-510" y="170" width="100" height="40" as="geometry"/>
                </mxCell>
                <mxCell id="44" value="Book" style="whiteSpace=wrap;html=1;align=center;" parent="1" vertex="1">
                    <mxGeometry x="-510" y="320" width="100" height="40" as="geometry"/>
                </mxCell>
                <mxCell id="52" value="Title" style="ellipse;whiteSpace=wrap;html=1;align=center;" parent="1" vertex="1">
                    <mxGeometry x="-600" y="210" width="100" height="40" as="geometry"/>
                </mxCell>
                <mxCell id="56" value="" style="endArrow=none;html=1;rounded=0;exitX=0.5;exitY=1;exitDx=0;exitDy=0;entryX=0.5;entryY=0;entryDx=0;entryDy=0;" parent="1" source="41" target="44" edge="1">
                    <mxGeometry relative="1" as="geometry">
                        <mxPoint x="-338" y="360" as="sourcePoint"/>
                        <mxPoint x="-178" y="360" as="targetPoint"/>
                    </mxGeometry>
                </mxCell>
                <mxCell id="57" value="" style="endArrow=none;html=1;rounded=0;entryX=0.5;entryY=0;entryDx=0;entryDy=0;exitX=0.5;exitY=1;exitDx=0;exitDy=0;" parent="1" source="52" target="44" edge="1">
                    <mxGeometry relative="1" as="geometry">
                        <mxPoint x="-348" y="260" as="sourcePoint"/>
                        <mxPoint x="-450" y="330" as="targetPoint"/>
                    </mxGeometry>
                </mxCell>
                <mxCell id="63" value="User" style="whiteSpace=wrap;html=1;align=center;" parent="1" vertex="1">
                    <mxGeometry x="-510" y="700" width="100" height="40" as="geometry"/>
                </mxCell>
                <mxCell id="67" value="is rented by" style="shape=rhombus;perimeter=rhombusPerimeter;whiteSpace=wrap;html=1;align=center;" parent="1" vertex="1">
                    <mxGeometry x="-520" y="500" width="120" height="60" as="geometry"/>
                </mxCell>
                <mxCell id="70" value="Author" style="ellipse;shape=doubleEllipse;margin=3;whiteSpace=wrap;html=1;align=center;" parent="1" vertex="1">
                    <mxGeometry x="-420" y="220" width="100" height="40" as="geometry"/>
                </mxCell>
                <mxCell id="71" value="" style="endArrow=none;html=1;rounded=0;entryX=0.5;entryY=0;entryDx=0;entryDy=0;exitX=0.5;exitY=1;exitDx=0;exitDy=0;" parent="1" source="70" target="44" edge="1">
                    <mxGeometry relative="1" as="geometry">
                        <mxPoint x="-568" y="280" as="sourcePoint"/>
                        <mxPoint x="-450" y="330" as="targetPoint"/>
                    </mxGeometry>
                </mxCell>
                <mxCell id="72" value="N" style="endArrow=none;html=1;rounded=0;exitX=0.5;exitY=1;exitDx=0;exitDy=0;entryX=0.5;entryY=0;entryDx=0;entryDy=0;" parent="1" source="44" target="67" edge="1">
                    <mxGeometry relative="1" as="geometry">
                        <mxPoint x="-428" y="420" as="sourcePoint"/>
                        <mxPoint x="-268" y="420" as="targetPoint"/>
                    </mxGeometry>
                </mxCell>
                <mxCell id="73" value="1" style="endArrow=none;html=1;rounded=0;exitX=0.5;exitY=1;exitDx=0;exitDy=0;entryX=0.5;entryY=0;entryDx=0;entryDy=0;" parent="1" target="63" edge="1">
                    <mxGeometry x="0.0085" relative="1" as="geometry">
                        <mxPoint x="-460" y="554.18" as="sourcePoint"/>
                        <mxPoint x="-450" y="504.18" as="targetPoint"/>
                        <mxPoint as="offset"/>
                    </mxGeometry>
                </mxCell>
                <mxCell id="80" value="M" style="edgeLabel;html=1;align=center;verticalAlign=middle;resizable=0;points=[];" parent="73" vertex="1" connectable="0">
                    <mxGeometry x="-0.0036" y="3" relative="1" as="geometry">
                        <mxPoint as="offset"/>
                    </mxGeometry>
                </mxCell>
                <mxCell id="75" value="Name" style="ellipse;whiteSpace=wrap;html=1;align=center;" parent="1" vertex="1">
                    <mxGeometry x="-410" y="780" width="100" height="40" as="geometry"/>
                </mxCell>
                <mxCell id="76" value="SSN" style="ellipse;whiteSpace=wrap;html=1;align=center;" parent="1" vertex="1">
                    <mxGeometry x="-620" y="780" width="100" height="40" as="geometry"/>
                </mxCell>
                <mxCell id="77" value="Genre" style="ellipse;whiteSpace=wrap;html=1;align=center;" parent="1" vertex="1">
                    <mxGeometry x="-670" y="270" width="100" height="40" as="geometry"/>
                </mxCell>
                <mxCell id="78" value="" style="endArrow=none;html=1;rounded=0;entryX=0.5;entryY=0;entryDx=0;entryDy=0;exitX=0.99;exitY=0.606;exitDx=0;exitDy=0;exitPerimeter=0;" parent="1" source="77" target="44" edge="1">
                    <mxGeometry relative="1" as="geometry">
                        <mxPoint x="-540" y="260" as="sourcePoint"/>
                        <mxPoint x="-450" y="330" as="targetPoint"/>
                    </mxGeometry>
                </mxCell>
                <mxCell id="79" value="userId" style="ellipse;whiteSpace=wrap;html=1;align=center;fontStyle=4;" parent="1" vertex="1">
                    <mxGeometry x="-510" y="820" width="100" height="40" as="geometry"/>
                </mxCell>
                <mxCell id="81" value="RentalDate" style="ellipse;whiteSpace=wrap;html=1;align=center;" parent="1" vertex="1">
                    <mxGeometry x="-340" y="454.18" width="100" height="40" as="geometry"/>
                </mxCell>
                <mxCell id="82" value="ReturnDate" style="ellipse;whiteSpace=wrap;html=1;align=center;" parent="1" vertex="1">
                    <mxGeometry x="-338" y="509.18" width="100" height="40" as="geometry"/>
                </mxCell>
                <mxCell id="91" value="Status" style="ellipse;whiteSpace=wrap;html=1;align=center;" parent="1" vertex="1">
                    <mxGeometry x="-340" y="564.18" width="100" height="40" as="geometry"/>
                </mxCell>
                <mxCell id="92" value="" style="endArrow=none;html=1;rounded=0;entryX=0;entryY=0.5;entryDx=0;entryDy=0;exitX=1;exitY=0.5;exitDx=0;exitDy=0;" parent="1" source="67" target="82" edge="1">
                    <mxGeometry relative="1" as="geometry">
                        <mxPoint x="-400" y="524.18" as="sourcePoint"/>
                        <mxPoint x="-330" y="514.18" as="targetPoint"/>
                    </mxGeometry>
                </mxCell>
                <mxCell id="93" value="" style="endArrow=none;html=1;rounded=0;entryX=0;entryY=1;entryDx=0;entryDy=0;exitX=1;exitY=0.5;exitDx=0;exitDy=0;" parent="1" source="67" target="81" edge="1">
                    <mxGeometry relative="1" as="geometry">
                        <mxPoint x="-400" y="524.18" as="sourcePoint"/>
                        <mxPoint x="-328.0000000000001" y="539.18" as="targetPoint"/>
                    </mxGeometry>
                </mxCell>
                <mxCell id="94" value="" style="endArrow=none;html=1;rounded=0;entryX=0;entryY=0;entryDx=0;entryDy=0;exitX=1;exitY=0.5;exitDx=0;exitDy=0;" parent="1" source="67" target="91" edge="1">
                    <mxGeometry relative="1" as="geometry">
                        <mxPoint x="-400" y="524.18" as="sourcePoint"/>
                        <mxPoint x="-315.3553390593246" y="498.3221356237296" as="targetPoint"/>
                    </mxGeometry>
                </mxCell>
                <mxCell id="98" value="" style="endArrow=none;html=1;rounded=0;exitX=1;exitY=0.5;exitDx=0;exitDy=0;entryX=0.5;entryY=1;entryDx=0;entryDy=0;" parent="1" source="76" target="63" edge="1">
                    <mxGeometry relative="1" as="geometry">
                        <mxPoint x="-460" y="790" as="sourcePoint"/>
                        <mxPoint x="-300" y="790" as="targetPoint"/>
                    </mxGeometry>
                </mxCell>
                <mxCell id="99" value="" style="endArrow=none;html=1;rounded=0;exitX=0.5;exitY=0;exitDx=0;exitDy=0;entryX=0.5;entryY=1;entryDx=0;entryDy=0;" parent="1" source="79" target="63" edge="1">
                    <mxGeometry relative="1" as="geometry">
                        <mxPoint x="-520" y="810" as="sourcePoint"/>
                        <mxPoint x="-450" y="740" as="targetPoint"/>
                    </mxGeometry>
                </mxCell>
                <mxCell id="100" value="" style="endArrow=none;html=1;rounded=0;exitX=0.201;exitY=0.114;exitDx=0;exitDy=0;entryX=0.5;entryY=1;entryDx=0;entryDy=0;exitPerimeter=0;" parent="1" source="75" target="63" edge="1">
                    <mxGeometry relative="1" as="geometry">
                        <mxPoint x="-395.2643347768276" y="789.0015561206568" as="sourcePoint"/>
                        <mxPoint x="-450" y="734.18" as="targetPoint"/>
                    </mxGeometry>
                </mxCell>
                <mxCell id="101" value="Rented" style="whiteSpace=wrap;html=1;align=center;" parent="1" vertex="1">
                    <mxGeometry x="80" y="321" width="100" height="40" as="geometry"/>
                </mxCell>
                <mxCell id="102" value="is" style="shape=rhombus;perimeter=rhombusPerimeter;whiteSpace=wrap;html=1;align=center;" parent="1" vertex="1">
                    <mxGeometry x="-220" y="310" width="120" height="60" as="geometry"/>
                </mxCell>
                <mxCell id="103" value="1" style="endArrow=none;html=1;rounded=0;exitX=1;exitY=0.5;exitDx=0;exitDy=0;entryX=0;entryY=0.5;entryDx=0;entryDy=0;" parent="1" source="44" target="102" edge="1">
                    <mxGeometry relative="1" as="geometry">
                        <mxPoint x="-310" y="360" as="sourcePoint"/>
                        <mxPoint x="-150" y="360" as="targetPoint"/>
                    </mxGeometry>
                </mxCell>
                <mxCell id="104" value="N" style="endArrow=none;html=1;rounded=0;exitX=0;exitY=0.5;exitDx=0;exitDy=0;entryX=0.946;entryY=0.536;entryDx=0;entryDy=0;entryPerimeter=0;" parent="1" source="101" target="102" edge="1">
                    <mxGeometry relative="1" as="geometry">
                        <mxPoint x="-400" y="350" as="sourcePoint"/>
                        <mxPoint x="-90" y="290" as="targetPoint"/>
                    </mxGeometry>
                </mxCell>
                <mxCell id="105" value="rentalId" style="ellipse;whiteSpace=wrap;html=1;align=center;fontStyle=4;" vertex="1" parent="1">
                    <mxGeometry x="90" y="170" width="100" height="40" as="geometry"/>
                </mxCell>
                <mxCell id="106" value="SSR" style="ellipse;whiteSpace=wrap;html=1;align=center;" vertex="1" parent="1">
                    <mxGeometry y="210" width="100" height="40" as="geometry"/>
                </mxCell>
                <mxCell id="107" value="" style="endArrow=none;html=1;rounded=0;exitX=0.5;exitY=1;exitDx=0;exitDy=0;entryX=0.5;entryY=0;entryDx=0;entryDy=0;" edge="1" parent="1" source="105">
                    <mxGeometry relative="1" as="geometry">
                        <mxPoint x="262" y="360" as="sourcePoint"/>
                        <mxPoint x="140" y="320" as="targetPoint"/>
                    </mxGeometry>
                </mxCell>
                <mxCell id="108" value="" style="endArrow=none;html=1;rounded=0;entryX=0.5;entryY=0;entryDx=0;entryDy=0;exitX=0.5;exitY=1;exitDx=0;exitDy=0;" edge="1" parent="1" source="106">
                    <mxGeometry relative="1" as="geometry">
                        <mxPoint x="252" y="260" as="sourcePoint"/>
                        <mxPoint x="140" y="320" as="targetPoint"/>
                    </mxGeometry>
                </mxCell>
                <mxCell id="110" value="Name" style="ellipse;whiteSpace=wrap;html=1;align=center;" vertex="1" parent="1">
                    <mxGeometry x="180" y="210" width="100" height="40" as="geometry"/>
                </mxCell>
                <mxCell id="111" value="" style="endArrow=none;html=1;rounded=0;exitX=0.5;exitY=1;exitDx=0;exitDy=0;entryX=0.6;entryY=-0.025;entryDx=0;entryDy=0;entryPerimeter=0;" edge="1" parent="1" source="110" target="101">
                    <mxGeometry relative="1" as="geometry">
                        <mxPoint x="60" y="260" as="sourcePoint"/>
                        <mxPoint x="200" y="320" as="targetPoint"/>
                    </mxGeometry>
                </mxCell>
            </root>
        </mxGraphModel>
    </diagram>
</mxfile>